#Comment line ignore any data following # character 
#Hierarchical Translation and Rotation (.htr) file 
[Header]	
#Header keywords are followed by a single value 
FileType HTR		#Single word string
DataType HTRS		#Translation followed by rotation and scale data
FileVersion 1		#integer
NumSegments 84		#integer
NumFrames 2		#integer
DataFrameRate 30		#integer, data frame rate in this file
EulerRotationOrder ZYX
CalibrationUnits mm
RotationUnits Degrees
GlobalAxisofGravity Y
BoneLengthAxis Y
ScaleFactor 1.00
[SegmentNames&Hierarchy]
#CHILD	PARENT
MASTER GLOBAL
root MASTER
chest root
L_mid_tent01 root
R_mid_tent01 root
spine01 root
Bip01_Neck chest
L_humerus chest
R_humerus chest
weapon_bone chest
Bip01_Head Bip01_Neck
eye_left_bone Bip01_Head
eye_right_bone Bip01_Head
L_forearm L_humerus
L_front_hand L_forearm
L_weapon_bone L_forearm
L_front_hand01_01 L_front_hand
L_front_hand02_01 L_front_hand
L_front_hand03_01 L_front_hand
L_front_hand01_02 L_front_hand01_01
L_front_hand02_02 L_front_hand02_01
L_front_hand03_02 L_front_hand03_01
R_forearm R_humerus
R_front_hand R_forearm
R_weapon_bone R_forearm
R_front_hand01_01 R_front_hand
R_front_hand02_01 R_front_hand
R_front_hand03_01 R_front_hand
R_front_hand01_02 R_front_hand01_01
R_front_hand02_02 R_front_hand02_01
R_front_hand03_02 R_front_hand03_01
null_rope01_connect L_mid_tent01
Rope1_Seg01 null_rope01_connect
Rope1_Seg02 Rope1_Seg01
Rope1_Seg03 Rope1_Seg02
Rope1_Seg04 Rope1_Seg03
Rope1_Seg05 Rope1_Seg04
Rope1_Seg06 Rope1_Seg05
Rope1_Seg07 Rope1_Seg06
Rope1_Seg09 Rope1_Seg07
L_mid_hand01 Rope1_Seg09
L_mid_hand02 Rope1_Seg09
L_mid_hand03 Rope1_Seg09
null_rope02_connect R_mid_tent01
Rope2_Seg01 null_rope02_connect
Rope2_Seg02 Rope2_Seg01
Rope2_Seg03 Rope2_Seg02
Rope2_Seg04 Rope2_Seg03
Rope2_Seg05 Rope2_Seg04
Rope2_Seg06 Rope2_Seg05
Rope2_Seg07 Rope2_Seg06
Rope2_Seg09 Rope2_Seg07
R_mid_hand01 Rope2_Seg09
R_mid_hand02 Rope2_Seg09
R_mid_hand03 Rope2_Seg09
spine02 spine01
spine03 spine02
pelvis spine03
null_rope03_connect pelvis
null_rope04_connect pelvis
Rope3_Seg01 null_rope03_connect
Rope3_Seg02 Rope3_Seg01
Rope3_Seg03 Rope3_Seg02
Rope3_Seg04 Rope3_Seg03
Rope3_Seg05 Rope3_Seg04
Rope3_Seg06 Rope3_Seg05
Rope3_Seg07 Rope3_Seg06
Rope3_Seg08 Rope3_Seg07
Rope3_Seg09 Rope3_Seg08
R_rear_hand01 Rope3_Seg09
R_rear_hand02 Rope3_Seg09
R_rear_hand03 Rope3_Seg09
Rope4_Seg01 null_rope04_connect
Rope4_Seg02 Rope4_Seg01
Rope4_Seg03 Rope4_Seg02
Rope4_Seg04 Rope4_Seg03
Rope4_Seg05 Rope4_Seg04
Rope4_Seg06 Rope4_Seg05
Rope4_Seg07 Rope4_Seg06
Rope4_Seg08 Rope4_Seg07
Rope4_Seg09 Rope4_Seg08
L_rear_hand01 Rope4_Seg09
L_rear_hand02 Rope4_Seg09
L_rear_hand03 Rope4_Seg09
[BasePosition]
#SegmentName Tx, Ty, Tz, Rx, Ry, Rz, BoneLength
MASTER 0.000000 0.000000 0.000000 -90.000000 0.000000 0.000000 10.000000 
root 0.000000 0.000000 0.000000 0.000000 0.000000 0.000000 10.000000 
chest 0.000000 0.000000 0.000000 0.000000 0.000000 0.000000 10.000000 
L_mid_tent01 0.000000 0.000000 0.000000 0.000000 0.000000 0.000000 10.000000 
R_mid_tent01 0.000000 0.000000 0.000000 0.000000 0.000000 0.000000 10.000000 
spine01 0.000000 0.000000 0.000000 0.000000 0.000000 0.000000 10.000000 
Bip01_Neck 0.000000 0.000000 0.000000 0.000000 0.000000 0.000000 10.000000 
L_humerus 0.000000 0.000000 0.000000 0.000000 0.000000 0.000000 10.000000 
R_humerus 0.000000 0.000000 0.000000 0.000000 0.000000 0.000000 10.000000 
weapon_bone 0.000000 0.000000 0.000000 0.000000 0.000000 0.000000 10.000000 
Bip01_Head 0.000000 0.000000 0.000000 0.000000 0.000000 0.000000 10.000000 
eye_left_bone 0.000000 0.000000 0.000000 0.000000 0.000000 0.000000 10.000000 
eye_right_bone 0.000000 0.000000 0.000000 0.000000 0.000000 0.000000 10.000000 
L_forearm 0.000000 0.000000 0.000000 0.000000 0.000000 0.000000 10.000000 
L_front_hand 0.000000 0.000000 0.000000 0.000000 0.000000 0.000000 10.000000 
L_weapon_bone 0.000000 0.000000 0.000000 0.000000 0.000000 0.000000 10.000000 
L_front_hand01_01 0.000000 0.000000 0.000000 0.000000 0.000000 0.000000 10.000000 
L_front_hand02_01 0.000000 0.000000 0.000000 0.000000 0.000000 0.000000 10.000000 
L_front_hand03_01 0.000000 0.000000 0.000000 0.000000 0.000000 0.000000 10.000000 
L_front_hand01_02 0.000000 0.000000 0.000000 0.000000 0.000000 0.000000 10.000000 
L_front_hand02_02 0.000000 0.000000 0.000000 0.000000 0.000000 0.000000 10.000000 
L_front_hand03_02 0.000000 0.000000 0.000000 0.000000 0.000000 0.000000 10.000000 
R_forearm 0.000000 0.000000 0.000000 0.000000 0.000000 0.000000 10.000000 
R_front_hand 0.000000 0.000000 0.000000 0.000000 0.000000 0.000000 10.000000 
R_weapon_bone 0.000000 0.000000 0.000000 0.000000 0.000000 0.000000 10.000000 
R_front_hand01_01 0.000000 0.000000 0.000000 0.000000 0.000000 0.000000 10.000000 
R_front_hand02_01 0.000000 0.000000 0.000000 0.000000 0.000000 0.000000 10.000000 
R_front_hand03_01 0.000000 0.000000 0.000000 0.000000 0.000000 0.000000 10.000000 
R_front_hand01_02 0.000000 0.000000 0.000000 0.000000 0.000000 0.000000 10.000000 
R_front_hand02_02 0.000000 0.000000 0.000000 0.000000 0.000000 0.000000 10.000000 
R_front_hand03_02 0.000000 0.000000 0.000000 0.000000 0.000000 0.000000 10.000000 
null_rope01_connect 0.000000 0.000000 0.000000 0.000000 0.000000 0.000000 10.000000 
Rope1_Seg01 0.000000 0.000000 0.000000 0.000000 0.000000 0.000000 10.000000 
Rope1_Seg02 0.000000 0.000000 0.000000 0.000000 0.000000 0.000000 10.000000 
Rope1_Seg03 0.000000 0.000000 0.000000 0.000000 0.000000 0.000000 10.000000 
Rope1_Seg04 0.000000 0.000000 0.000000 0.000000 0.000000 0.000000 10.000000 
Rope1_Seg05 0.000000 0.000000 0.000000 0.000000 0.000000 0.000000 10.000000 
Rope1_Seg06 0.000000 0.000000 0.000000 0.000000 0.000000 0.000000 10.000000 
Rope1_Seg07 0.000000 0.000000 0.000000 0.000000 0.000000 0.000000 10.000000 
Rope1_Seg09 0.000000 0.000000 0.000000 0.000000 0.000000 0.000000 10.000000 
L_mid_hand01 0.000000 0.000000 0.000000 0.000000 0.000000 0.000000 10.000000 
L_mid_hand02 0.000000 0.000000 0.000000 0.000000 0.000000 0.000000 10.000000 
L_mid_hand03 0.000000 0.000000 0.000000 0.000000 0.000000 0.000000 10.000000 
null_rope02_connect 0.000000 0.000000 0.000000 0.000000 0.000000 0.000000 10.000000 
Rope2_Seg01 0.000000 0.000000 0.000000 0.000000 0.000000 0.000000 10.000000 
Rope2_Seg02 0.000000 0.000000 0.000000 0.000000 0.000000 0.000000 10.000000 
Rope2_Seg03 0.000000 0.000000 0.000000 0.000000 0.000000 0.000000 10.000000 
Rope2_Seg04 0.000000 0.000000 0.000000 0.000000 0.000000 0.000000 10.000000 
Rope2_Seg05 0.000000 0.000000 0.000000 0.000000 0.000000 0.000000 10.000000 
Rope2_Seg06 0.000000 0.000000 0.000000 0.000000 0.000000 0.000000 10.000000 
Rope2_Seg07 0.000000 0.000000 0.000000 0.000000 0.000000 0.000000 10.000000 
Rope2_Seg09 0.000000 0.000000 0.000000 0.000000 0.000000 0.000000 10.000000 
R_mid_hand01 0.000000 0.000000 0.000000 0.000000 0.000000 0.000000 10.000000 
R_mid_hand02 0.000000 0.000000 0.000000 0.000000 0.000000 0.000000 10.000000 
R_mid_hand03 0.000000 0.000000 0.000000 0.000000 0.000000 0.000000 10.000000 
spine02 0.000000 0.000000 0.000000 0.000000 0.000000 0.000000 10.000000 
spine03 0.000000 0.000000 0.000000 0.000000 0.000000 0.000000 10.000000 
pelvis 0.000000 0.000000 0.000000 0.000000 0.000000 0.000000 10.000000 
null_rope03_connect 0.000000 0.000000 0.000000 0.000000 0.000000 0.000000 10.000000 
null_rope04_connect 0.000000 0.000000 0.000000 0.000000 0.000000 0.000000 10.000000 
Rope3_Seg01 0.000000 0.000000 0.000000 0.000000 0.000000 0.000000 10.000000 
Rope3_Seg02 0.000000 0.000000 0.000000 0.000000 0.000000 0.000000 10.000000 
Rope3_Seg03 0.000000 0.000000 0.000000 0.000000 0.000000 0.000000 10.000000 
Rope3_Seg04 0.000000 0.000000 0.000000 0.000000 0.000000 0.000000 10.000000 
Rope3_Seg05 0.000000 0.000000 0.000000 0.000000 0.000000 0.000000 10.000000 
Rope3_Seg06 0.000000 0.000000 0.000000 0.000000 0.000000 0.000000 10.000000 
Rope3_Seg07 0.000000 0.000000 0.000000 0.000000 0.000000 0.000000 10.000000 
Rope3_Seg08 0.000000 0.000000 0.000000 0.000000 0.000000 0.000000 10.000000 
Rope3_Seg09 0.000000 0.000000 0.000000 0.000000 0.000000 0.000000 10.000000 
R_rear_hand01 0.000000 0.000000 0.000000 0.000000 0.000000 0.000000 10.000000 
R_rear_hand02 0.000000 0.000000 0.000000 0.000000 0.000000 0.000000 10.000000 
R_rear_hand03 0.000000 0.000000 0.000000 0.000000 0.000000 0.000000 10.000000 
Rope4_Seg01 0.000000 0.000000 0.000000 0.000000 0.000000 0.000000 10.000000 
Rope4_Seg02 0.000000 0.000000 0.000000 0.000000 0.000000 0.000000 10.000000 
Rope4_Seg03 0.000000 0.000000 0.000000 0.000000 0.000000 0.000000 10.000000 
Rope4_Seg04 0.000000 0.000000 0.000000 0.000000 0.000000 0.000000 10.000000 
Rope4_Seg05 0.000000 0.000000 0.000000 0.000000 0.000000 0.000000 10.000000 
Rope4_Seg06 0.000000 0.000000 0.000000 0.000000 0.000000 0.000000 10.000000 
Rope4_Seg07 0.000000 0.000000 0.000000 0.000000 0.000000 0.000000 10.000000 
Rope4_Seg08 0.000000 0.000000 0.000000 0.000000 0.000000 0.000000 10.000000 
Rope4_Seg09 0.000000 0.000000 0.000000 0.000000 0.000000 0.000000 10.000000 
L_rear_hand01 0.000000 0.000000 0.000000 0.000000 0.000000 0.000000 10.000000 
L_rear_hand02 0.000000 0.000000 0.000000 0.000000 0.000000 0.000000 10.000000 
L_rear_hand03 0.000000 0.000000 0.000000 0.000000 0.000000 0.000000 10.000000 
#Beginning of Data. Separated by tabs
#Fr	Tx	Ty	Tz	Rx	Ry	Rz	SF
[MASTER]
45 0.000000 0.000000 0.000000 0.001660 0.001660 0.001660 0.000000
46 0.000000 0.000000 0.000000 0.001660 0.001660 0.001660 0.000000
[root]
45 -16.916191 -169.011917 950.507019 -86.555901 -58.466175 -92.593758 965.564514
46 -16.773266 -177.560608 943.660645 -86.327194 -59.412891 -92.737358 960.366821
[chest]
45 -84.512650 -34.090519 0.000000 2.250165 -1.766325 -125.033104 91.129311
46 -84.512650 -34.090519 0.000000 2.261713 -1.721837 -124.943382 91.129311
[L_mid_tent01]
45 27.299500 22.177483 -249.917984 -17.917253 -4.210223 99.129448 252.380859
46 27.299500 22.177483 -249.917984 -17.806271 -3.188287 103.263596 252.380859
[R_mid_tent01]
45 23.228794 24.509907 226.238495 -172.866104 2.977672 92.966949 228.744751
46 23.228794 24.509907 226.238495 -173.291229 2.587807 96.430916 228.744751
[spine01]
45 -0.361383 -0.195265 0.000000 0.001938 0.001325 21.270004 0.410763
46 -0.361383 -0.195265 0.000000 0.001939 0.001323 21.400328 0.410763
[Bip01_Neck]
45 165.484543 71.581718 0.000119 175.896118 1.177290 24.871183 180.302734
46 165.484543 71.581718 0.000119 175.896118 1.177290 24.871183 180.302734
[L_humerus]
45 -13.983130 -135.272980 -120.471481 -92.403908 0.654774 -174.446304 181.680161
46 -13.983130 -135.272980 -120.471481 -92.255562 0.690452 -173.003006 181.680161
[R_humerus]
45 -13.983309 -135.273102 125.287651 103.000740 1.729733 -169.272232 184.909012
46 -13.983309 -135.273102 125.287651 103.000740 1.729733 -169.272232 184.909012
[weapon_bone]
45 235.964890 -300.705902 0.000000 0.000000 -89.951546 -128.212341 382.234833
46 235.964890 -300.705902 0.000000 0.000000 -89.951546 -128.212341 382.234833
[Bip01_Head]
45 102.819786 23.735466 5.410369 3.150732 3.423701 -20.839092 105.662445
46 102.819786 23.735458 5.410374 3.150732 3.423701 -20.839092 105.662445
[eye_left_bone]
45 -24.626970 125.451866 -64.772606 0.000000 -90.000000 -99.840431 143.318359
46 -24.626970 125.451866 -64.772606 0.000000 -90.000000 -99.840431 143.318359
[eye_right_bone]
45 -24.626970 125.451866 64.327362 0.000000 -89.960434 80.159386 143.117676
46 -24.626970 125.451866 64.327362 0.000000 -89.960434 80.159386 143.117676
[L_forearm]
45 322.776093 0.000000 -0.000119 0.000061 0.002346 -87.045456 322.776093
46 322.776093 0.000000 -0.000119 0.000053 0.002347 -87.426788 322.776093
[L_front_hand]
45 241.149185 -0.042021 -3.300071 -177.735153 -0.130543 -78.220230 241.171753
46 241.149185 -0.042021 -3.300071 -177.734100 -0.117280 -78.539063 241.171753
[L_weapon_bone]
45 156.183838 0.000000 0.000000 0.001923 0.001349 19.912712 156.183838
46 156.183838 0.000000 0.000000 0.001862 0.001429 14.980333 156.183838
[L_front_hand01_01]
45 86.095154 20.947098 -0.655860 0.405585 -0.442306 -4.620490 88.609184
46 86.095154 20.947098 -0.655860 0.405585 -0.442306 -4.620490 88.609184
[L_front_hand02_01]
45 86.935165 -11.437475 24.513514 116.959450 3.630817 1.495453 91.046425
46 86.935165 -11.437475 24.513514 116.959450 3.630817 1.495453 91.046425
[L_front_hand03_01]
45 86.637497 -14.123976 -20.424902 -118.420097 -4.656303 -0.152527 90.126129
46 86.637497 -14.123976 -20.424902 -118.420097 -4.656303 -0.152527 90.126129
[L_front_hand01_02]
45 71.020905 -0.000179 0.000030 0.001534 0.001777 -8.378850 71.020905
46 71.020905 -0.000179 0.000030 0.001534 0.001777 -8.378850 71.020905
[L_front_hand02_02]
45 71.020927 -0.000119 0.000060 0.001534 0.001777 -8.378850 71.020927
46 71.020927 -0.000119 0.000060 0.001534 0.001777 -8.378850 71.020927
[L_front_hand03_02]
45 71.020905 -0.000060 0.000060 0.001534 0.001777 -8.378850 71.020905
46 71.020905 -0.000060 0.000060 0.001534 0.001777 -8.378850 71.020905
[R_forearm]
45 322.776428 -0.000060 0.000030 0.213197 -0.011026 -88.450905 322.776428
46 322.776428 -0.000060 0.000030 0.213068 -0.013286 -87.235611 322.776428
[R_front_hand]
45 238.847015 -0.006795 2.210259 -1.688754 -0.359644 -90.785713 238.857239
46 238.847015 -0.006795 2.210259 -1.686207 -0.369223 -91.113617 238.857239
[R_weapon_bone]
45 155.664093 0.002503 -0.000030 0.003185 0.001854 -114.023567 155.664078
46 155.664093 0.002503 -0.000030 0.003269 0.001691 -108.319611 155.664078
[R_front_hand01_01]
45 87.624611 14.231146 22.918642 -116.960205 3.496675 -1.324138 91.683487
46 87.624611 14.231146 22.918642 -116.960213 3.496675 -1.324139 91.683487
[R_front_hand02_01]
45 89.356956 14.367283 -19.491137 118.419647 -4.257089 0.609827 92.579636
46 89.356956 14.367283 -19.491137 118.419647 -4.257089 0.609827 92.579636
[R_front_hand03_01]
45 87.286232 -22.307278 -0.143439 -0.387970 -0.231462 4.232001 90.091743
46 87.286232 -22.307278 -0.143439 -0.387970 -0.231462 4.232001 90.091743
[R_front_hand01_02]
45 71.020905 0.000060 0.000119 0.001777 0.001534 8.377220 71.020905
46 71.020905 0.000060 0.000119 0.001777 0.001534 8.377220 71.020905
[R_front_hand02_02]
45 71.020844 -0.000030 -0.000119 0.001777 0.001534 8.377220 71.020836
46 71.020844 -0.000030 -0.000119 0.001777 0.001534 8.377220 71.020836
[R_front_hand03_02]
45 71.020905 0.000000 0.000030 0.001777 0.001534 8.377220 71.020905
46 71.020905 0.000000 0.000030 0.001777 0.001534 8.377220 71.020905
[null_rope01_connect]
45 328.732483 0.000000 -0.000238 121.412964 -72.332565 -71.102234 328.732483
46 328.732483 0.000000 -0.000238 120.782455 -72.597443 -73.810295 328.732483
[Rope1_Seg01]
45 0.000000 0.000000 0.000000 119.167038 49.713634 146.084641 0.000000
46 0.000000 0.000000 0.000000 118.150345 54.721893 142.858383 0.000000
[Rope1_Seg02]
45 139.999863 -0.000179 0.000000 -6.493967 -19.889442 50.288971 139.999863
46 139.999863 -0.000179 0.000000 -6.610824 -21.637039 61.139194 139.999863
[Rope1_Seg03]
45 139.999924 0.000060 -0.000060 12.997512 -14.973294 31.378914 139.999924
46 139.999924 0.000060 -0.000060 20.581966 -9.928497 26.407164 139.999924
[Rope1_Seg04]
45 139.999924 -0.000060 -0.000119 59.361217 5.677879 21.773960 139.999924
46 139.999924 -0.000060 -0.000119 56.823112 7.560449 19.448677 139.999924
[Rope1_Seg05]
45 139.999832 0.000119 -0.000060 39.452179 39.504387 8.825870 139.999832
46 139.999832 0.000119 -0.000060 37.918919 40.690113 7.806032 139.999832
[Rope1_Seg06]
45 139.999954 0.000119 -0.000060 2.795252 16.937086 -7.345563 139.999954
46 139.999954 0.000119 -0.000060 2.269588 18.147388 -8.395597 139.999954
[Rope1_Seg07]
45 139.999985 0.000060 0.000000 0.590273 7.598155 -3.831014 139.999985
46 139.999985 0.000060 0.000000 0.361805 8.068958 -4.247592 139.999985
[Rope1_Seg09]
45 121.602913 0.000119 -0.000089 -89.793175 -1.359789 0.847147 121.602913
46 121.602913 0.000119 -0.000089 -89.793175 -1.359789 0.847147 121.602913
[L_mid_hand01]
45 103.859421 1.038730 8.195221 104.355873 -1.086171 -0.807687 104.187431
46 103.859421 1.038730 8.195221 104.355331 -0.665934 -0.701867 104.187431
[L_mid_hand02]
45 105.572853 -4.139662 -10.864139 -135.690872 4.931925 -4.437388 106.211075
46 105.572853 -4.139662 -10.864139 -135.665741 4.629649 -4.125945 106.211075
[L_mid_hand03]
45 104.641464 17.579376 -3.913581 -18.764921 0.146388 4.334623 106.179977
46 104.641464 17.579376 -3.913581 -18.767710 0.008736 3.926008 106.179977
[null_rope02_connect]
45 328.732849 0.000179 -0.000119 134.342834 81.415283 -101.260918 328.732849
46 328.732849 0.000179 -0.000119 134.962341 81.976028 -98.105988 328.732849
[Rope2_Seg01]
45 0.000095 0.000153 0.000067 -39.274956 53.177753 66.818916 0.000192
46 0.000095 0.000153 0.000069 -31.162420 53.758759 77.020493 0.000193
[Rope2_Seg02]
45 139.999741 -0.000060 -0.000119 0.738252 -23.803791 -11.265805 139.999756
46 139.999741 -0.000060 -0.000119 -1.121431 -25.954000 -12.669255 139.999756
[Rope2_Seg03]
45 140.000107 0.000030 0.000000 -12.028944 -42.428165 -24.766611 140.000107
46 140.000107 0.000030 0.000000 -16.617155 -41.310230 -28.831032 140.000107
[Rope2_Seg04]
45 139.999802 0.000000 -0.000060 -24.646141 -21.943056 -28.458904 139.999802
46 139.999802 0.000000 -0.000060 -23.333687 -18.199337 -27.682446 139.999802
[Rope2_Seg05]
45 139.999985 -0.000060 0.000119 -18.943594 -4.842926 -35.896606 139.999985
46 139.999985 -0.000060 0.000119 -18.413027 -4.972983 -36.675426 139.999985
[Rope2_Seg06]
45 139.999893 -0.000030 -0.000119 -4.263441 2.885798 -14.241116 139.999893
46 139.999893 -0.000030 -0.000119 -4.182810 3.223527 -15.200537 139.999893
[Rope2_Seg07]
45 139.999893 0.000060 -0.000060 -1.090563 1.562277 -5.644444 139.999893
46 139.999893 0.000060 -0.000060 -0.998372 1.741107 -6.150096 139.999893
[Rope2_Seg09]
45 121.338966 0.000089 -0.000060 33.793236 -1.359788 -0.847141 121.338966
46 121.338966 0.000089 -0.000060 33.793236 -1.359788 -0.847141 121.338966
[R_mid_hand01]
45 104.680779 11.144459 -10.335981 -47.326859 3.986141 6.397264 105.778534
46 104.680779 11.144459 -10.335981 -47.346966 3.685743 6.116735 105.778534
[R_mid_hand02]
45 104.070427 2.443552 8.231699 75.606995 -3.602500 1.458967 104.424065
46 104.070427 2.443552 8.231699 75.617317 -3.203014 1.355172 104.424065
[R_mid_hand03]
45 106.028137 -11.221827 -5.996406 -164.443329 2.867607 -7.481928 106.788818
46 106.028137 -11.221827 -5.996406 -164.425507 2.759052 -7.085969 106.788818
[spine02]
45 129.756927 0.001550 0.000119 -2.782573 -3.416945 33.607620 129.756927
46 129.756927 0.001550 0.000119 -2.903198 -3.358526 35.655540 129.756927
[spine03]
45 79.055389 0.010474 -0.587855 4.516253 7.100865 42.792309 79.057571
46 79.065430 0.008728 -0.489881 4.633658 7.348202 43.904827 79.066940
[pelvis]
45 169.435242 0.051022 0.000000 -6.374258 -2.639249 12.064404 169.435257
46 169.435242 0.051022 0.000000 -6.524881 -2.676434 12.384140 169.435257
[null_rope03_connect]
45 -1.257226 -2.466202 137.391083 156.195496 -85.491974 -116.936066 137.418976
46 -1.257226 -2.466202 137.391083 155.907074 -85.315758 -119.284012 137.418976
[null_rope04_connect]
45 -1.259640 -2.480268 -137.844437 156.195496 -85.491974 -116.936066 137.872513
46 -1.259640 -2.480268 -137.844437 155.907074 -85.315758 -119.284012 137.872513
[Rope3_Seg01]
45 0.000000 0.000000 0.000000 -178.638855 79.363373 -112.632721 0.000000
46 0.000000 0.000000 0.000000 176.640594 80.498207 -116.865128 0.000000
[Rope3_Seg02]
45 139.999924 -0.000119 0.000060 -4.745437 -9.982491 5.232469 139.999924
46 139.999924 -0.000119 0.000060 -4.923401 -10.494022 5.322199 139.999924
[Rope3_Seg03]
45 139.999924 -0.000119 0.000119 -11.868133 -27.169699 12.715039 139.999924
46 139.999924 -0.000119 0.000119 -11.769000 -27.942657 12.579802 139.999924
[Rope3_Seg04]
45 139.999924 0.000119 0.000000 -7.794802 -37.228577 11.592630 139.999924
46 139.999924 0.000119 0.000000 -6.697356 -35.843113 10.522321 139.999924
[Rope3_Seg05]
45 139.999924 -0.000238 0.000060 2.204938 -30.034716 5.543423 139.999924
46 139.999924 -0.000238 0.000060 2.401371 -28.995567 5.074914 139.999924
[Rope3_Seg06]
45 139.999893 -0.000119 -0.000060 0.411602 -70.814857 39.774452 139.999893
46 139.999893 -0.000119 -0.000060 0.945496 -71.636932 39.776009 139.999893
[Rope3_Seg07]
45 139.999771 0.000060 -0.000119 5.894450 -12.843685 11.881055 139.999771
46 139.999771 0.000060 -0.000119 6.123064 -13.141043 12.365884 139.999771
[Rope3_Seg08]
45 139.999985 -0.000060 0.000000 2.042211 -3.182713 3.706362 139.999985
46 139.999985 -0.000060 0.000000 2.065547 -3.160224 3.785333 139.999985
[Rope3_Seg09]
45 90.185997 -0.000179 -0.000060 89.793228 -1.359877 -0.847183 90.185997
46 90.185997 -0.000179 -0.000060 89.793228 -1.359877 -0.847183 90.185997
[R_rear_hand01]
45 103.366196 -6.073594 -10.757982 -156.177261 6.589822 -3.975006 104.101845
46 103.366196 -6.073594 -10.757982 -156.136261 6.436140 -3.625058 104.101845
[R_rear_hand02]
45 100.509819 12.039542 -7.992327 -38.665024 2.757510 6.457575 101.543350
46 100.509819 12.039542 -7.992327 -38.677380 2.518155 6.163045 101.543350
[R_rear_hand03]
45 101.539970 5.215704 5.435467 84.299019 -3.637368 4.227082 101.819031
46 101.539970 5.215704 5.435467 84.302460 -3.260857 4.186783 101.819031
[Rope4_Seg01]
45 0.000000 0.000000 0.000000 86.195457 81.198219 -76.298431 0.000000
46 0.000000 0.000000 0.000000 85.862198 82.168045 -76.940453 0.000000
[Rope4_Seg02]
45 139.999985 0.000060 0.000119 2.787870 2.831974 -8.066893 139.999985
46 139.999985 0.000060 0.000119 2.886777 3.048850 -8.669928 139.999985
[Rope4_Seg03]
45 139.999924 0.000000 -0.000238 5.135403 6.233593 -21.753405 139.999924
46 139.999924 0.000000 -0.000238 5.087891 6.708764 -23.642385 139.999924
[Rope4_Seg04]
45 139.999985 0.000000 0.000119 0.789950 7.520475 -47.541954 139.999985
46 139.999985 0.000000 0.000119 0.262331 7.257039 -46.142754 139.999985
[Rope4_Seg05]
45 139.999802 -0.000060 -0.000119 -3.947467 2.602926 -25.896620 139.999802
46 139.999802 -0.000060 -0.000119 -3.729834 2.615240 -24.308664 139.999802
[Rope4_Seg06]
45 139.999924 0.000000 0.000060 -26.711220 8.260311 -64.300041 139.999924
46 139.999924 0.000000 0.000060 -27.045258 8.256025 -65.442368 139.999924
[Rope4_Seg07]
45 139.999802 0.000000 0.000000 -14.900857 15.889338 -28.671768 139.999802
46 139.999802 0.000000 0.000000 -14.871229 16.002325 -28.711243 139.999802
[Rope4_Seg08]
45 139.999924 0.000000 0.000119 -3.318765 4.370846 -4.954027 139.999924
46 139.999924 0.000000 0.000119 -3.281686 4.353711 -4.912399 139.999924
[Rope4_Seg09]
45 90.185791 0.000060 0.000060 -135.617828 2.228885 0.850567 90.185791
46 90.185791 0.000060 0.000060 -135.617828 2.228885 0.850567 90.185791
[L_rear_hand01]
45 101.696655 -8.392275 -7.654577 -38.741520 -0.630772 176.198166 102.329041
46 101.696655 -8.392275 -7.654577 -38.747189 -0.370535 176.521057 102.329041
[L_rear_hand02]
45 102.726799 -1.568258 5.773216 84.314980 0.255305 176.111633 102.900848
46 102.726799 -1.568258 5.773216 84.314339 -0.159727 176.149780 102.900848
[L_rear_hand03]
45 104.552910 9.721220 -10.420293 -155.854004 -5.208606 -179.152130 105.519653
46 104.552910 9.721220 -10.420293 -155.822952 -5.036584 -179.531876 105.519653
